<svg width="82" height="72" viewBox="0 0 82 72" fill="none" xmlns="http://www.w3.org/2000/svg">
<path fill-rule="evenodd" clip-rule="evenodd" d="M18 29V1H1V29H18Z" fill="#FFA500"/>
<path d="M18 29H1V48.5L9.5 38.75L18 29Z" fill="#800080"/>
<path d="M1 48.5H18V29L9.5 38.75L1 48.5Z" fill="#FFC0CB"/>
<path d="M1 71L18 48.5H1V71Z" fill="#40E0D0"/>
<path d="M1 71H18V48.5L1 71Z" fill="#800080"/>
<path d="M33 29H18L26 49H41L33 29Z" fill="#40E0D0"/>
<path d="M41 49H26L34 71H41V49Z" fill="#FFA500"/>
<path d="M18 1V29H33L21.5 1H18Z" fill="#FFC0CB"/>
<path d="M1 71H18V48.5M1 71L18 48.5M1 71V48.5M18 48.5H1M18 48.5V29M1 48.5V29M1 48.5L9.5 38.75L18 29M18 29H1M18 29V1M18 29H33.5M18 29L26 49M18 29H33M1 29V1H18M18 1H21.5L33 29M33 29L41 49M41 49H26M41 49V71H34L26 49" stroke="black"/>
<path fill-rule="evenodd" clip-rule="evenodd" d="M64 29V1H81V29H64Z" fill="#FFA500"/>
<path d="M64 29H81V48.5L72.5 38.75L64 29Z" fill="#800080"/>
<path d="M81 48.5H64V29L72.5 38.75L81 48.5Z" fill="#FFC0CB"/>
<path d="M81 71L64 48.5H81V71Z" fill="#40E0D0"/>
<path d="M81 71H64V48.5L81 71Z" fill="#800080"/>
<path d="M49 29H64L56 49H41L49 29Z" fill="#40E0D0"/>
<path d="M41 49H56L48 71H41C41 66.7042 41 64.2958 41 60V49Z" fill="#FFA500"/>
<path d="M64 1V29H49L60.5 1H64Z" fill="#FFC0CB"/>
<path d="M81 71H64V48.5M81 71L64 48.5M81 71V48.5M64 48.5H81M64 48.5V29M81 48.5V29M81 48.5L72.5 38.75L64 29M64 29H81M64 29V1M64 29H48.5M64 29L56 49M64 29H49M81 29V1H64M64 1H60.5L49 29M49 29L41 49M41 49H56M41 49V60C41 64.2958 41 66.7042 41 71H48L56 49" stroke="black"/>
</svg>
