<svg width="417" height="73" viewBox="0 0 417 73" fill="none" xmlns="http://www.w3.org/2000/svg">
<path d="M79.7 1.8V72H62.6V29.9L46.9 72H33.1L17.3 29.8V72H0.2V1.8H20.4L40.1 50.4L59.6 1.8H79.7ZM295.823 24C294.557 21.6667 292.723 19.9 290.323 18.7C287.99 17.4333 285.223 16.8 282.023 16.8C276.49 16.8 272.057 18.6333 268.723 22.3C265.39 25.9 263.723 30.7333 263.723 36.8C263.723 43.2667 265.457 48.3333 268.923 52C272.457 55.6 277.29 57.4 283.423 57.4C287.623 57.4 291.157 56.3333 294.023 54.2C296.957 52.0667 299.09 49 300.423 45H278.723V32.4H315.923V48.3C314.657 52.5667 312.49 56.5333 309.423 60.2C306.423 63.8667 302.59 66.8333 297.923 69.1C293.257 71.3667 287.99 72.5 282.123 72.5C275.19 72.5 268.99 71 263.523 68C258.123 64.9333 253.89 60.7 250.823 55.3C247.823 49.9 246.323 43.7333 246.323 36.8C246.323 29.8667 247.823 23.7 250.823 18.3C253.89 12.8333 258.123 8.6 263.523 5.6C268.923 2.53333 275.09 0.999996 282.023 0.999996C290.423 0.999996 297.49 3.03333 303.223 7.1C309.023 11.1667 312.857 16.8 314.723 24H295.823Z" fill="#800080"/>
<path d="M125.197 72.7C118.597 72.7 112.53 71.1667 106.997 68.1C101.53 65.0333 97.1635 60.7667 93.8969 55.3C90.6969 49.7667 89.0969 43.5667 89.0969 36.7C89.0969 29.8333 90.6969 23.6667 93.8969 18.2C97.1635 12.7333 101.53 8.46667 106.997 5.4C112.53 2.33333 118.597 0.799999 125.197 0.799999C131.797 0.799999 137.83 2.33333 143.297 5.4C148.83 8.46667 153.164 12.7333 156.297 18.2C159.497 23.6667 161.097 29.8333 161.097 36.7C161.097 43.5667 159.497 49.7667 156.297 55.3C153.097 60.7667 148.764 65.0333 143.297 68.1C137.83 71.1667 131.797 72.7 125.197 72.7ZM125.197 57.1C130.797 57.1 135.264 55.2333 138.597 51.5C141.997 47.7667 143.697 42.8333 143.697 36.7C143.697 30.5 141.997 25.5667 138.597 21.9C135.264 18.1667 130.797 16.3 125.197 16.3C119.53 16.3 114.997 18.1333 111.597 21.8C108.264 25.4667 106.597 30.4333 106.597 36.7C106.597 42.9 108.264 47.8667 111.597 51.6C114.997 55.2667 119.53 57.1 125.197 57.1Z" fill="#FFA500"/>
<path d="M203.81 72.7C197.21 72.7 191.143 71.1667 185.61 68.1C180.143 65.0333 175.777 60.7667 172.51 55.3C169.31 49.7667 167.71 43.5667 167.71 36.7C167.71 29.8333 169.31 23.6667 172.51 18.2C175.777 12.7333 180.143 8.46667 185.61 5.4C191.143 2.33333 197.21 0.799999 203.81 0.799999C210.41 0.799999 216.443 2.33333 221.91 5.4C227.443 8.46667 231.777 12.7333 234.91 18.2C238.11 23.6667 239.71 29.8333 239.71 36.7C239.71 43.5667 238.11 49.7667 234.91 55.3C231.71 60.7667 227.377 65.0333 221.91 68.1C216.443 71.1667 210.41 72.7 203.81 72.7ZM203.81 57.1C209.41 57.1 213.877 55.2333 217.21 51.5C220.61 47.7667 222.31 42.8333 222.31 36.7C222.31 30.5 220.61 25.5667 217.21 21.9C213.877 18.1667 209.41 16.3 203.81 16.3C198.143 16.3 193.61 18.1333 190.21 21.8C186.877 25.4667 185.21 30.4333 185.21 36.7C185.21 42.9 186.877 47.8667 190.21 51.6C193.61 55.2667 198.143 57.1 203.81 57.1Z" fill="#FC8398"/>
<path d="M342.495 58.8H364.895V72H325.395V1.8H342.495V58.8Z" fill="#40E0D0"/>
<path d="M390.152 15.5V29.7H413.052V42.9H390.152V58.3H416.052V72H373.052V1.8H416.052V15.5H390.152Z" fill="#E21A1A"/>
</svg>
