<svg width="370" height="102" viewBox="0 0 370 102" fill="none" xmlns="http://www.w3.org/2000/svg">
<path d="M79.7 3.8V74H62.6V31.9L46.9 74H33.1L17.3 31.8V74H0.2V3.8H20.4L40.1 52.4L59.6 3.8H79.7ZM240.541 17.4C244.474 17.4 247.907 18.2 250.841 19.8C253.841 21.4 256.141 23.5 257.741 26.1V18.2H274.841V73.9C274.841 79.0333 273.807 83.6667 271.741 87.8C269.741 92 266.641 95.3333 262.441 97.8C258.307 100.267 253.141 101.5 246.941 101.5C238.674 101.5 231.974 99.5333 226.841 95.6C221.707 91.7333 218.774 86.4667 218.041 79.8H234.941C235.474 81.9333 236.741 83.6 238.741 84.8C240.741 86.0667 243.207 86.7 246.141 86.7C249.674 86.7 252.474 85.6667 254.541 83.6C256.674 81.6 257.741 78.3667 257.741 73.9V66C256.074 68.6 253.774 70.7333 250.841 72.4C247.907 74 244.474 74.8 240.541 74.8C235.941 74.8 231.774 73.6333 228.041 71.3C224.307 68.9 221.341 65.5333 219.141 61.2C217.007 56.8 215.941 51.7333 215.941 46C215.941 40.2667 217.007 35.2333 219.141 30.9C221.341 26.5667 224.307 23.2333 228.041 20.9C231.774 18.5667 235.941 17.4 240.541 17.4ZM257.741 46.1C257.741 41.8333 256.541 38.4667 254.141 36C251.807 33.5333 248.941 32.3 245.541 32.3C242.141 32.3 239.241 33.5333 236.841 36C234.507 38.4 233.341 41.7333 233.341 46C233.341 50.2667 234.507 53.6667 236.841 56.2C239.241 58.6667 242.141 59.9 245.541 59.9C248.941 59.9 251.807 58.6667 254.141 56.2C256.541 53.7333 257.741 50.3667 257.741 46.1Z" fill="#800080"/>
<path d="M117.397 74.8C111.93 74.8 106.997 73.6333 102.597 71.3C98.2635 68.9667 94.8302 65.6333 92.2969 61.3C89.8302 56.9667 88.5969 51.9 88.5969 46.1C88.5969 40.3667 89.8635 35.3333 92.3969 31C94.9302 26.6 98.3969 23.2333 102.797 20.9C107.197 18.5667 112.13 17.4 117.597 17.4C123.064 17.4 127.997 18.5667 132.397 20.9C136.797 23.2333 140.264 26.6 142.797 31C145.33 35.3333 146.597 40.3667 146.597 46.1C146.597 51.8333 145.297 56.9 142.697 61.3C140.164 65.6333 136.664 68.9667 132.197 71.3C127.797 73.6333 122.864 74.8 117.397 74.8ZM117.397 60C120.664 60 123.43 58.8 125.697 56.4C128.03 54 129.197 50.5667 129.197 46.1C129.197 41.6333 128.064 38.2 125.797 35.8C123.597 33.4 120.864 32.2 117.597 32.2C114.264 32.2 111.497 33.4 109.297 35.8C107.097 38.1333 105.997 41.5667 105.997 46.1C105.997 50.5667 107.064 54 109.197 56.4C111.397 58.8 114.13 60 117.397 60Z" fill="#FFA500"/>
<path d="M181.069 74.8C175.602 74.8 170.669 73.6333 166.269 71.3C161.935 68.9667 158.502 65.6333 155.969 61.3C153.502 56.9667 152.269 51.9 152.269 46.1C152.269 40.3667 153.535 35.3333 156.069 31C158.602 26.6 162.069 23.2333 166.469 20.9C170.869 18.5667 175.802 17.4 181.269 17.4C186.735 17.4 191.669 18.5667 196.069 20.9C200.469 23.2333 203.935 26.6 206.469 31C209.002 35.3333 210.269 40.3667 210.269 46.1C210.269 51.8333 208.969 56.9 206.369 61.3C203.835 65.6333 200.335 68.9667 195.869 71.3C191.469 73.6333 186.535 74.8 181.069 74.8ZM181.069 60C184.335 60 187.102 58.8 189.369 56.4C191.702 54 192.869 50.5667 192.869 46.1C192.869 41.6333 191.735 38.2 189.469 35.8C187.269 33.4 184.535 32.2 181.269 32.2C177.935 32.2 175.169 33.4 172.969 35.8C170.769 38.1333 169.669 41.5667 169.669 46.1C169.669 50.5667 170.735 54 172.869 56.4C175.069 58.8 177.802 60 181.069 60Z" fill="#FC8398"/>
<path d="M304.312 -9.53674e-07V74H287.212V-9.53674e-07H304.312Z" fill="#40E0D0"/>
<path d="M369.304 45.2C369.304 46.8 369.204 48.4667 369.004 50.2H330.304C330.571 53.6667 331.671 56.3333 333.604 58.2C335.604 60 338.037 60.9 340.904 60.9C345.171 60.9 348.137 59.1 349.804 55.5H368.004C367.071 59.1667 365.371 62.4667 362.904 65.4C360.504 68.3333 357.471 70.6333 353.804 72.3C350.137 73.9667 346.037 74.8 341.504 74.8C336.037 74.8 331.171 73.6333 326.904 71.3C322.637 68.9667 319.304 65.6333 316.904 61.3C314.504 56.9667 313.304 51.9 313.304 46.1C313.304 40.3 314.471 35.2333 316.804 30.9C319.204 26.5667 322.537 23.2333 326.804 20.9C331.071 18.5667 335.971 17.4 341.504 17.4C346.904 17.4 351.704 18.5333 355.904 20.8C360.104 23.0667 363.371 26.3 365.704 30.5C368.104 34.7 369.304 39.6 369.304 45.2ZM351.804 40.7C351.804 37.7667 350.804 35.4333 348.804 33.7C346.804 31.9667 344.304 31.1 341.304 31.1C338.437 31.1 336.004 31.9333 334.004 33.6C332.071 35.2667 330.871 37.6333 330.404 40.7H351.804Z" fill="#E21A1A"/>
</svg>
