<svg width="427" height="302" viewBox="0 0 427 302" fill="none" xmlns="http://www.w3.org/2000/svg">
<path fill-rule="evenodd" clip-rule="evenodd" d="M193.517 295.686C160.247 301.284 121.411 309.377 95.0576 288.315C68.7728 267.309 77.7564 225.784 66.4139 194.108C54.5395 160.947 15.3972 131.97 27.1883 98.7789C39.0391 65.4199 87.5498 66.9505 118.002 48.8918C144.419 33.2261 162.921 -2.54235 193.517 0.143256C224.273 2.84296 233.685 45.1682 259.976 61.3537C290.061 79.875 335.712 71.0498 355.846 100.078C376.751 130.219 378.566 174.983 361.197 207.291C344.326 238.673 302.043 242.175 270.522 258.791C244.713 272.397 222.29 290.845 193.517 295.686Z" fill="url(#paint0_linear_11_34)"/>
<path d="M85.7 115.8V186H68.6V143.9L52.9 186H39.1L23.3 143.8V186H6.2V115.8H26.4L46.1 164.4L65.6 115.8H85.7ZM301.823 138C300.557 135.667 298.723 133.9 296.323 132.7C293.99 131.433 291.223 130.8 288.023 130.8C282.49 130.8 278.057 132.633 274.723 136.3C271.39 139.9 269.723 144.733 269.723 150.8C269.723 157.267 271.457 162.333 274.923 166C278.457 169.6 283.29 171.4 289.423 171.4C293.623 171.4 297.157 170.333 300.023 168.2C302.957 166.067 305.09 163 306.423 159H284.723V146.4H321.923V162.3C320.657 166.567 318.49 170.533 315.423 174.2C312.423 177.867 308.59 180.833 303.923 183.1C299.257 185.367 293.99 186.5 288.123 186.5C281.19 186.5 274.99 185 269.523 182C264.123 178.933 259.89 174.7 256.823 169.3C253.823 163.9 252.323 157.733 252.323 150.8C252.323 143.867 253.823 137.7 256.823 132.3C259.89 126.833 264.123 122.6 269.523 119.6C274.923 116.533 281.09 115 288.023 115C296.423 115 303.49 117.033 309.223 121.1C315.023 125.167 318.857 130.8 320.723 138H301.823Z" fill="#800080"/>
<path d="M131.197 186.7C124.597 186.7 118.53 185.167 112.997 182.1C107.53 179.033 103.164 174.767 99.8969 169.3C96.6969 163.767 95.0969 157.567 95.0969 150.7C95.0969 143.833 96.6969 137.667 99.8969 132.2C103.164 126.733 107.53 122.467 112.997 119.4C118.53 116.333 124.597 114.8 131.197 114.8C137.797 114.8 143.83 116.333 149.297 119.4C154.83 122.467 159.164 126.733 162.297 132.2C165.497 137.667 167.097 143.833 167.097 150.7C167.097 157.567 165.497 163.767 162.297 169.3C159.097 174.767 154.764 179.033 149.297 182.1C143.83 185.167 137.797 186.7 131.197 186.7ZM131.197 171.1C136.797 171.1 141.264 169.233 144.597 165.5C147.997 161.767 149.697 156.833 149.697 150.7C149.697 144.5 147.997 139.567 144.597 135.9C141.264 132.167 136.797 130.3 131.197 130.3C125.53 130.3 120.997 132.133 117.597 135.8C114.264 139.467 112.597 144.433 112.597 150.7C112.597 156.9 114.264 161.867 117.597 165.6C120.997 169.267 125.53 171.1 131.197 171.1Z" fill="#FFA500"/>
<path d="M209.81 186.7C203.21 186.7 197.143 185.167 191.61 182.1C186.143 179.033 181.777 174.767 178.51 169.3C175.31 163.767 173.71 157.567 173.71 150.7C173.71 143.833 175.31 137.667 178.51 132.2C181.777 126.733 186.143 122.467 191.61 119.4C197.143 116.333 203.21 114.8 209.81 114.8C216.41 114.8 222.443 116.333 227.91 119.4C233.443 122.467 237.777 126.733 240.91 132.2C244.11 137.667 245.71 143.833 245.71 150.7C245.71 157.567 244.11 163.767 240.91 169.3C237.71 174.767 233.377 179.033 227.91 182.1C222.443 185.167 216.41 186.7 209.81 186.7ZM209.81 171.1C215.41 171.1 219.877 169.233 223.21 165.5C226.61 161.767 228.31 156.833 228.31 150.7C228.31 144.5 226.61 139.567 223.21 135.9C219.877 132.167 215.41 130.3 209.81 130.3C204.143 130.3 199.61 132.133 196.21 135.8C192.877 139.467 191.21 144.433 191.21 150.7C191.21 156.9 192.877 161.867 196.21 165.6C199.61 169.267 204.143 171.1 209.81 171.1Z" fill="#FC8398"/>
<path d="M348.495 172.8H370.895V186H331.395V115.8H348.495V172.8Z" fill="#40E0D0"/>
<path d="M396.152 129.5V143.7H419.052V156.9H396.152V172.3H422.052V186H379.052V115.8H422.052V129.5H396.152Z" fill="#E21A1A"/>
<defs>
<linearGradient id="paint0_linear_11_34" x1="199" y1="302" x2="199" y2="0" gradientUnits="userSpaceOnUse">
<stop stop-color="#D4E4FE"/>
<stop offset="1" stop-color="#1D6CEE"/>
</linearGradient>
</defs>
</svg>
